<?xml version="1.0" standalone="no"?>
<!DOCTYPE svg PUBLIC "-//W3C//DTD SVG 20010904//EN"
 "http://www.w3.org/TR/2001/REC-SVG-20010904/DTD/svg10.dtd">
<svg version="1.0" xmlns="http://www.w3.org/2000/svg"
 width="48.000000pt" height="48.000000pt" viewBox="0 0 48.000000 48.000000"
 preserveAspectRatio="xMidYMid meet">

<g transform="translate(0.000000,48.000000) scale(0.100000,-0.100000)"
fill="#000000" stroke="none">
<path d="M60 380 c-16 -16 -20 -33 -20 -90 0 -56 3 -70 15 -70 12 0 15 14 15
63 0 36 5 68 12 75 17 17 299 17 316 0 22 -22 12 -33 -73 -80 l-84 -46 -65 34
c-43 23 -67 31 -71 24 -9 -14 -12 -11 67 -55 l68 -37 100 54 c89 47 100 56
100 81 0 15 -9 36 -20 47 -18 18 -33 20 -180 20 -147 0 -162 -2 -180 -20z"/>
<path d="M410 197 c0 -36 -5 -68 -12 -75 -17 -17 -299 -17 -316 0 -7 7 -12 25
-12 40 0 18 -5 28 -15 28 -23 0 -19 -66 5 -90 18 -18 33 -20 180 -20 197 0
200 2 200 110 0 56 -3 70 -15 70 -12 0 -15 -14 -15 -63z"/>
</g>
</svg>
